<svg xmlns="http://www.w3.org/2000/svg" viewBox="0 0 541 126">
    <title>webspark_site_logo</title>
    <path d="M218,63.43a15.89,15.89,0,0,1-11.84,26.48H158.47v-53h47.67A15.89,15.89,0,0,1,218,63.43ZM169.07,79.31h37.07a5.3,5.3,0,1,0,0-10.59H171.71V58.13h34.43a5.3,5.3,0,1,0,0-10.59H169.07V79.32Z"
          style="fill:#fff"/>
    <path d="M289.05,36.94h47.67a15.89,15.89,0,1,1,0,31.78H299.64V89.91H289.05V58.13h47.67a5.3,5.3,0,1,0,0-10.59H289.05V36.94Z"
          style="fill:#fff"/>
    <polygon
            points="155.82 36.94 155.82 47.54 108.16 47.54 108.16 58.13 153.18 58.13 153.18 68.72 108.16 68.72 108.16 79.31 155.82 79.31 155.82 89.91 97.56 89.91 97.56 73.89 111.75 36.94 155.82 36.94"
            style="fill:#fff"/>
    <path d="M222.85,79.31h47.67a5.3,5.3,0,1,0,0-10.59H238.74a15.89,15.89,0,1,1,0-31.78H286.4V47.54H238.74a5.3,5.3,0,1,0,0,10.59h31.78a15.89,15.89,0,1,1,0,31.78H222.85V79.31Z"
          style="fill:#fff"/>
    <polygon
            points="391.7 58.13 391.7 89.91 381.11 89.91 381.11 68.72 359.79 68.72 322.71 105.8 307.73 105.8 392.48 21.05 407.46 21.05 370.38 58.13 391.7 58.13"
            style="fill:#fff"/>
    <path d="M402.29,58.13H450a5.3,5.3,0,1,0,0-10.59H428l7.94,7.94H421L402.42,36.94H450a15.89,15.89,0,1,1,0,31.78H412.88V89.91H402.29V58.13Zm49.54,13.24L470.36,89.9h-15L436.85,71.37Z"
          style="fill:#fff"/>
    <polygon
            points="36.52 89.91 16.19 36.94 27.54 36.94 42.19 75.13 56.85 36.94 68.25 36.94 82.91 75.13 97.56 36.94 108.91 36.94 88.58 89.91 77.23 89.91 62.55 51.66 47.87 89.91 36.52 89.91"
            style="fill:#fff"/>
    <path d="M481,60.77l23.83-23.83h15L493.29,63.42,519.77,89.9h-15L481,66.07V89.9H470.36v-53H481V60.77Z"
          style="fill:#fff"/>
</svg>